<svg xmlns="http://www.w3.org/2000/svg" version="1.1" xmlns:xlink="http://www.w3.org/1999/xlink" xmlns:svgjs="http://svgjs.dev/svgjs" width="1000" height="1000" viewBox="0 0 1000 1000"><rect width="1000" height="1000" fill="#000000"></rect><g transform="matrix(0.7,0,0,0.7,149.65000000000003,149.65025548993174)"><svg viewBox="0 0 280 280" data-background-color="#003366" preserveAspectRatio="xMidYMid meet" height="1000" width="1000" xmlns="http://www.w3.org/2000/svg" xmlns:xlink="http://www.w3.org/1999/xlink"><g id="tight-bounds" transform="matrix(1,0,0,1,0.13999999999998636,0.1399453246884832)"><svg viewBox="0 0 279.72 279.72" height="279.72" width="279.72"><g><svg viewBox="0 0 279.72 279.72" height="279.72" width="279.72"><g><svg viewBox="0 0 279.72 279.72" height="279.72" width="279.72"><g id="textblocktransform"><svg viewBox="0 0 279.72 279.72" height="279.72" width="279.72" id="textblock"><g><svg viewBox="0 0 279.72 279.72" height="279.72" width="279.72"><g transform="matrix(1,0,0,1,73.92936372216631,75.01943319227844)"><svg viewBox="0 0 131.8612725556674 129.68113361544314" height="129.68113361544314" width="131.8612725556674"><g><svg xmlns="http://www.w3.org/2000/svg" xmlns:xlink="http://www.w3.org/1999/xlink" version="1.1" x="0" y="0" viewBox="0.3199958801269531 1.141000747680664 99.36045837402344 97.7176742553711" enable-background="new 0 0 100 100" xml:space="preserve" height="129.68113361544314" width="131.8612725556674" class="icon-o-0" data-fill-palette-color="accent" id="o-0"><path fill="#ffffff" d="M89.222 32.368c-3.09-2.343-2.549 10.643-19.604 12.638-7.823 0.915-14.457-0.505-20.066-2.389 6.137-4.041 10.192-10.982 10.192-18.878 0-12.48-10.116-22.598-22.597-22.598-10.894 0-19.981 7.707-22.119 17.964-8.126-1.708-14.708-3.23-14.708 3.742 0 6.481 9.652 12.936 19.916 16.83C9.551 44.448 2.099 55.16 2.099 67.618c0 16.895 13.79 28.836 30.593 30.592 23.859 2.494 52.163-1.592 62.851-23.055C103.188 59.804 99.754 40.35 89.222 32.368z" data-fill-palette-color="accent"></path></svg></g></svg></g><path d="M21.433 185.109c-0.053 0.112-0.05 0.254 0.01 0.425 0.058 0.165 0.144 0.296 0.257 0.392v0c1.427-0.798 2.265-1.291 2.513-1.479v0c0.248-0.209 0.332-0.425 0.254-0.647v0c-0.034-0.095-0.104-0.203-0.21-0.323v0zM15.893 183.731v0c-0.174-0.046-0.321-0.048-0.442-0.005v0c-0.292 0.103-0.439 0.459-0.438 1.067-0.004 0.616 0.106 1.321 0.329 2.115v0c-1.39 0.641-2.157 1.07-2.302 1.285v0c-0.443-0.058-1-0.451-1.672-1.179-0.678-0.726-1.208-1.626-1.588-2.7v0c-0.506-1.43-0.633-2.762-0.382-3.995 0.257-1.235 0.869-2.024 1.835-2.365v0c0.261-0.092 0.499-0.148 0.714-0.166v0l15.382-1.855c0.792 0.621 1.529 1.433 2.213 2.436 0.677 1.005 1.228 2.108 1.653 3.31v0c0.607 1.716 0.836 3.284 0.686 4.703v0c-0.163 1.624-0.817 2.806-1.964 3.548v0l-12.907 8.403c-1.714-0.56-2.986-2.013-3.815-4.359v0c-0.402-1.138-0.539-2.173-0.411-3.105 0.126-0.939 0.548-1.606 1.266-2.003v0l1.707-0.968c0.224 0.593 0.543 1.131 0.957 1.614 0.42 0.481 0.751 0.678 0.992 0.593v0c0.159-0.056 0.266-0.169 0.321-0.338v0c-0.406-0.278-0.777-0.67-1.112-1.173-0.333-0.497-0.583-0.981-0.75-1.452v0c-0.476-1.348-0.567-2.485-0.272-3.411zM24.738 216.497v0c-0.717-1.26-1.074-2.364-1.071-3.313v0c-0.007-1.02 0.367-1.788 1.122-2.303v0l1.231-0.863c0.68 0.73 1.609 1.144 2.789 1.24v0c0.33 0.021 0.58-0.016 0.75-0.113v0c0.24-0.137 0.292-0.325 0.156-0.566v0l-0.025-0.044c-0.009-0.003-0.022-0.018-0.039-0.047v0c-1.721 0.126-2.991-0.532-3.812-1.974v0c-0.42-0.738-0.618-1.46-0.593-2.165 0.029-0.699 0.315-1.491 0.86-2.374v0l-0.05-0.088c-0.14-0.246-0.316-0.309-0.527-0.189v0c-0.146 0.083-0.282 0.234-0.406 0.452v0c-0.405 0.719-0.627 1.455-0.664 2.206v0c-0.046 0.6 0.04 1.153 0.257 1.657v0l-2.671 1.381c-0.671-0.347-1.264-0.782-1.778-1.304-0.505-0.519-1.08-1.345-1.724-2.475-0.641-1.125-0.993-2.255-1.057-3.39v0c-0.072-1.394 0.375-2.367 1.342-2.918v0c1.201-0.684 4.312-2.137 9.332-4.358v0c2.626-1.153 4.474-1.934 5.545-2.342v0c1.384 0.469 2.603 1.629 3.658 3.481v0c0.764 1.342 1.152 2.595 1.163 3.76v0l-2.11 2.202-2.305 0.673c-0.161 0.045-0.305 0.104-0.435 0.177v0c-0.322 0.183-0.381 0.461-0.177 0.834v0l6.196-1.793c0.413 0.262 0.869 0.654 1.368 1.177 0.496 0.517 0.949 1.136 1.359 1.856v0c0.764 1.342 1.105 2.467 1.025 3.374-0.09 0.905-0.639 1.726-1.648 2.463v0c-0.183 0.143-0.493 0.374-0.932 0.693v0c-6.719 4.935-10.72 7.767-12.003 8.498v0c-1.653-0.409-3.028-1.578-4.126-3.505zM48.241 219.137v0l-13.09 9.889c-0.626-0.135-1.301-0.441-2.024-0.917-0.718-0.48-1.428-1.186-2.132-2.117-0.699-0.925-1.087-1.87-1.164-2.834v0c-0.11-1.074 0.244-1.921 1.061-2.538v0l13.09-9.889c0.632 0.131 1.306 0.437 2.024 0.917 0.723 0.476 1.432 1.174 2.128 2.095 0.699 0.925 1.098 1.879 1.197 2.86v0c0.086 1.076-0.277 1.921-1.09 2.534zM47.297 234.345v0c0.07 0.073 0.155 0.122 0.255 0.148v0l1.04-1.005c0.85 0.182 1.835 0.633 2.952 1.353 1.123 0.716 2.113 1.517 2.97 2.404v0c-0.023 0.801-0.316 1.73-0.878 2.789-0.552 1.059-1.154 1.916-1.804 2.573v0c-0.451 0.145-1.026 0.204-1.727 0.177-0.696-0.022-1.44-0.142-2.232-0.36v0c-1.965-0.549-3.739-1.643-5.323-3.282v0c-2.263-2.342-3.364-4.846-3.304-7.511v0c0.033-2.722 1.269-5.262 3.708-7.618 2.439-2.357 5.093-3.448 7.961-3.275v0c1.267 0.07 2.49 0.393 3.667 0.972 1.177 0.588 2.241 1.374 3.192 2.358v0c1.851 1.916 2.903 3.937 3.158 6.063 0.259 2.122-0.293 3.841-1.656 5.158v0c-1.028 0.993-2.094 1.414-3.198 1.261-1.104-0.162-2.178-0.784-3.222-1.866v0c-0.572-0.592-1.002-1.329-1.292-2.211-0.285-0.887-0.355-1.513-0.211-1.877v0c0.626-0.604 1.13-1.068 1.512-1.391v0c-0.009-0.019-0.033-0.048-0.07-0.087v0l-0.078-0.08c-0.112-0.116-0.231-0.176-0.354-0.177-0.124-0.002-0.314 0.073-0.569 0.226-0.255 0.143-0.839 0.656-1.751 1.536v0c-2.187 2.113-3.103 3.354-2.746 3.722zM61.291 247.373v0c0.317 0.162 0.562 0.127 0.736-0.106 0.174-0.232 0.295-0.55 0.362-0.954 0.077-0.406 0.067-0.848-0.03-1.325v0c-0.24-1.242-1.004-2.347-2.294-3.314v0c-0.636-0.477-1.309-0.817-2.017-1.02v0c-0.36-0.734-0.472-1.551-0.335-2.452 0.131-0.905 0.476-1.73 1.034-2.473v0c1.465-1.953 3.408-2.847 5.83-2.682v0c2.077 0.142 4.14 0.981 6.19 2.519v0c1.521 1.141 2.679 2.267 3.473 3.376 0.804 1.109 1.344 2.163 1.622 3.164v0c-0.227 0.707-0.565 1.359-1.014 1.958-0.453 0.604-0.945 1.091-1.475 1.461-0.53 0.369-1.057 0.589-1.582 0.659v0c-0.128-0.425-0.487-1.031-1.076-1.819-0.589-0.788-1.194-1.414-1.814-1.879-0.615-0.461-1.056-0.733-1.323-0.815-0.262-0.078-0.453-0.036-0.574 0.125v0c-0.057 0.076-0.098 0.158-0.124 0.249v0c0.353 0.147 0.762 0.395 1.226 0.742v0c1.651 1.238 2.705 2.636 3.164 4.194v0c0.53 1.856 0.097 3.714-1.3 5.575v0c-1.234 1.645-2.924 2.51-5.069 2.595v0c-2.31 0.079-4.679-0.791-7.106-2.612v0c-1.338-1.003-2.423-1.973-3.255-2.91-0.837-0.94-1.534-2.006-2.089-3.198v0c0.059-1.405 0.445-2.583 1.157-3.532 0.716-0.955 1.635-1.5 2.757-1.636 1.122-0.136 2.158 0.152 3.107 0.864 0.955 0.716 1.589 1.495 1.902 2.337 0.318 0.846 0.29 1.815-0.083 2.909zM72.321 260.511v0c0.058-0.099 0.063-0.241 0.015-0.425v0c-0.507-0.016-1.065-0.204-1.675-0.563v0c-0.831-0.489-1.376-1.205-1.636-2.147-0.263-0.937-0.12-1.87 0.427-2.8v0c0.667-1.133 1.557-1.803 2.671-2.008 1.108-0.209 2.215 0.012 3.319 0.661v0c1.308 0.769 2.077 1.836 2.307 3.2v0c0.2 1.283-0.099 2.602-0.895 3.956v0c-0.998 1.697-2.264 2.752-3.797 3.164v0c-1.392 0.386-2.699 0.22-3.92-0.498v0c-0.831-0.489-1.397-1.049-1.699-1.68-0.299-0.622-0.252-1.267 0.141-1.936v0c0.256-0.436 0.615-0.733 1.076-0.892v0c0.394 0.646 0.937 1.173 1.629 1.58v0c1.122 0.66 1.801 0.789 2.037 0.388zM100.403 273.963v0c-1.366-0.485-2.358-1.088-2.975-1.809v0c-0.672-0.768-0.89-1.594-0.655-2.476v0l0.368-1.458c0.992 0.109 1.966-0.185 2.922-0.883v0c0.264-0.2 0.429-0.391 0.495-0.575v0c0.093-0.261 0.009-0.437-0.252-0.53v0l-0.048-0.017c-0.009 0.004-0.029 0.001-0.06-0.011v0c-1.22 1.219-2.612 1.551-4.176 0.996v0c-0.801-0.284-1.421-0.702-1.862-1.252-0.435-0.548-0.735-1.335-0.901-2.36v0l-0.095-0.034c-0.267-0.095-0.441-0.028-0.522 0.201v0c-0.056 0.159-0.06 0.361-0.012 0.608v0c0.163 0.809 0.476 1.511 0.937 2.104v0c0.357 0.485 0.783 0.847 1.277 1.087v0l-1.12 2.79c-0.735 0.175-1.468 0.233-2.198 0.174-0.722-0.063-1.696-0.313-2.922-0.748-1.22-0.434-2.225-1.059-3.015-1.877v0c-0.965-1.009-1.262-2.037-0.889-3.085v0c0.463-1.303 1.869-4.434 4.219-9.396v0c1.235-2.588 2.124-4.387 2.669-5.395v0c1.354-0.549 3.036-0.467 5.043 0.246v0c1.455 0.517 2.567 1.213 3.337 2.088v0l-0.159 3.045-1.306 2.016c-0.092 0.139-0.163 0.278-0.213 0.418v0c-0.124 0.349 0.013 0.598 0.41 0.747v0l3.52-5.404c0.483-0.072 1.085-0.072 1.805-0.003 0.713 0.067 1.46 0.24 2.242 0.517v0c1.455 0.517 2.448 1.146 2.979 1.886 0.523 0.744 0.643 1.724 0.361 2.94v0c-0.045 0.227-0.129 0.605-0.252 1.134v0c-1.864 8.125-3.044 12.884-3.538 14.275v0c-1.519 0.77-3.323 0.783-5.414 0.041zM118.139 257.041v0l9.016 1.637c0.208 0.552 0.332 1.136 0.37 1.753 0.04 0.61 0.017 1.151-0.068 1.622v0c-0.192 1.055-0.541 1.81-1.049 2.267-0.508 0.456-1.13 0.617-1.867 0.483v0l-6.299-1.144c-0.385-0.07-0.604 0.044-0.658 0.343v0l-0.024 0.129c-0.011 0.06-0.008 0.101 0.008 0.125v0l7.474 1.358c0.127 0.359 0.212 0.796 0.255 1.311v0c0.03 0.554 0.007 1.039-0.069 1.457v0c-0.225 1.241-0.63 2.168-1.215 2.781v0l-3.393-0.616c-1.579-0.287-2.661-0.422-3.247-0.405-0.586 0.017-0.952 0.053-1.099 0.109v0c-0.157 0.074-0.249 0.184-0.276 0.33-0.027 0.146 0.026 0.272 0.157 0.378v0c0.577-0.08 1.167-0.103 1.771-0.069v0c0.796 0.069 1.652 0.187 2.567 0.353v0l4.389 0.797c0.474 1.011 0.597 2.147 0.368 3.408v0c-0.129 0.71-0.339 1.374-0.63 1.993-0.296 0.611-0.659 1.083-1.089 1.416v0l-11.704-2.125c-1.287-0.234-2.265-0.737-2.933-1.51v0c-0.735-0.819-0.986-1.875-0.75-3.169v0l2.699-14.857c0.09-0.498 0.731-0.758 1.92-0.782 1.189-0.017 2.981 0.192 5.376 0.626zM144.402 279.719v0c-1.45-0.021-2.582-0.273-3.398-0.757v0c-0.883-0.512-1.355-1.223-1.416-2.135v0l-0.12-1.499c0.974-0.215 1.802-0.807 2.484-1.775v0c0.186-0.274 0.28-0.508 0.283-0.704v0c0.004-0.276-0.132-0.417-0.409-0.42v0l-0.05-0.001c-0.007 0.007-0.027 0.01-0.061 0.009v0c-0.764 1.547-1.976 2.308-3.634 2.284v0c-0.85-0.012-1.572-0.208-2.167-0.587-0.588-0.379-1.125-1.028-1.61-1.945v0l-0.101-0.002c-0.283-0.004-0.427 0.115-0.43 0.358v0c-0.002 0.169 0.059 0.362 0.184 0.579v0c0.415 0.714 0.936 1.278 1.563 1.692v0c0.494 0.344 1.014 0.551 1.559 0.619v0l-0.165 3.002c-0.64 0.402-1.315 0.692-2.025 0.871-0.704 0.172-1.706 0.248-3.008 0.23-1.295-0.019-2.447-0.288-3.458-0.809v0c-1.238-0.645-1.849-1.524-1.833-2.636v0c0.02-1.382 0.346-4.8 0.978-10.253v0c0.338-2.848 0.603-4.837 0.794-5.967v0c1.106-0.955 2.725-1.417 4.855-1.386v0c1.544 0.022 2.821 0.324 3.831 0.905v0l0.827 2.935-0.59 2.328c-0.043 0.161-0.065 0.316-0.067 0.464v0c-0.005 0.371 0.204 0.563 0.629 0.576v0l1.598-6.249c0.435-0.223 1.004-0.417 1.707-0.582 0.697-0.165 1.46-0.242 2.29-0.23v0c1.544 0.022 2.686 0.298 3.427 0.829 0.734 0.537 1.163 1.426 1.287 2.669v0c0.03 0.23 0.072 0.615 0.125 1.155v0c0.845 8.293 1.256 13.178 1.234 14.654v0c-1.191 1.217-2.896 1.809-5.113 1.778zM155.766 257.998v0l9.065-1.342c0.374 0.456 0.679 0.97 0.913 1.542 0.234 0.565 0.386 1.085 0.456 1.558v0c0.157 1.061 0.068 1.888-0.266 2.483-0.335 0.595-0.872 0.947-1.613 1.057v0l-6.333 0.938c-0.387 0.057-0.558 0.236-0.514 0.536v0l0.019 0.13c0.009 0.06 0.025 0.099 0.048 0.116v0l7.514-1.113c0.235 0.299 0.456 0.686 0.663 1.16v0c0.206 0.515 0.34 0.982 0.402 1.402v0c0.185 1.247 0.099 2.255-0.258 3.024v0l-3.412 0.505c-1.588 0.235-2.656 0.455-3.205 0.659-0.549 0.204-0.885 0.356-1.006 0.455v0c-0.125 0.121-0.177 0.255-0.155 0.402 0.022 0.147 0.112 0.249 0.27 0.307v0c0.52-0.261 1.072-0.472 1.655-0.633v0c0.776-0.19 1.625-0.353 2.545-0.49v0l4.412-0.653c0.774 0.806 1.254 1.842 1.442 3.11v0c0.106 0.714 0.12 1.41 0.044 2.089-0.084 0.674-0.277 1.237-0.578 1.691v0l-11.766 1.742c-1.294 0.192-2.381 0.029-3.263-0.488v0c-0.959-0.54-1.535-1.46-1.728-2.76v0l-2.211-14.938c-0.074-0.5 0.449-0.953 1.568-1.357 1.12-0.398 2.885-0.775 5.292-1.132zM177.557 268.159v0c0.317-0.161 0.434-0.38 0.349-0.657-0.085-0.277-0.271-0.562-0.558-0.856-0.283-0.301-0.646-0.553-1.089-0.756v0c-1.145-0.538-2.488-0.571-4.029-0.098v0c-0.761 0.233-1.431 0.576-2.012 1.028v0c-0.805-0.141-1.531-0.532-2.178-1.173-0.654-0.639-1.117-1.403-1.39-2.293v0c-0.715-2.334-0.292-4.431 1.267-6.291v0c1.338-1.595 3.232-2.767 5.682-3.517v0c1.818-0.557 3.41-0.829 4.775-0.818 1.369 0.004 2.54 0.188 3.512 0.554v0c0.437 0.599 0.766 1.257 0.985 1.972 0.221 0.722 0.325 1.406 0.311 2.052-0.014 0.646-0.147 1.202-0.399 1.667v0c-0.419-0.147-1.12-0.214-2.104-0.202-0.984 0.012-1.846 0.132-2.587 0.359-0.735 0.225-1.214 0.421-1.438 0.589-0.217 0.165-0.296 0.345-0.237 0.538v0c0.028 0.09 0.07 0.172 0.128 0.246v0c0.327-0.199 0.768-0.383 1.322-0.553v0c1.973-0.604 3.724-0.633 5.252-0.086v0c1.812 0.665 3.058 2.11 3.74 4.334v0c0.602 1.966 0.306 3.841-0.89 5.626v0c-1.297 1.913-3.396 3.315-6.297 4.203v0c-1.599 0.49-3.022 0.795-4.268 0.916-1.253 0.123-2.525 0.058-3.815-0.196v0c-1.1-0.876-1.824-1.881-2.172-3.016-0.35-1.141-0.249-2.205 0.302-3.192 0.551-0.987 1.394-1.654 2.528-2.002 1.141-0.35 2.144-0.403 3.008-0.159 0.871 0.241 1.638 0.835 2.302 1.781zM197.71 247.256v0l7.361 14.661c-0.246 0.591-0.669 1.2-1.267 1.825-0.602 0.619-1.424 1.191-2.467 1.714-1.036 0.52-2.036 0.732-2.998 0.634v0c-1.077-0.086-1.845-0.586-2.305-1.503v0l-7.362-14.661c0.243-0.597 0.666-1.206 1.268-1.825 0.599-0.625 1.414-1.197 2.444-1.714 1.036-0.52 2.046-0.741 3.03-0.661v0c1.074 0.11 1.839 0.62 2.296 1.53zM215.927 243.324c0.123 0.016 0.257-0.031 0.402-0.141 0.139-0.106 0.237-0.228 0.294-0.364v0c-1.198-1.113-1.925-1.758-2.18-1.937v0c-0.275-0.172-0.507-0.186-0.694-0.043v0c-0.08 0.061-0.161 0.161-0.242 0.3v0zM216.32 249.02v0c0.01 0.179 0.053 0.32 0.131 0.421v0c0.188 0.246 0.572 0.276 1.15 0.089 0.588-0.186 1.225-0.507 1.911-0.963v0c1.038 1.125 1.681 1.724 1.931 1.795v0c0.081 0.439-0.122 1.09-0.607 1.954-0.482 0.869-1.176 1.649-2.082 2.34v0c-1.206 0.921-2.434 1.452-3.683 1.593-1.254 0.135-2.193-0.204-2.815-1.019v0c-0.168-0.22-0.294-0.429-0.378-0.628v0l-6.495-14.067c0.348-0.944 0.894-1.896 1.638-2.855 0.748-0.953 1.629-1.817 2.641-2.59v0c1.447-1.105 2.868-1.805 4.264-2.099v0c1.595-0.345 2.922-0.085 3.98 0.778v0l11.965 9.697c-0.006 1.803-0.997 3.46-2.974 4.97v0c-0.959 0.733-1.902 1.181-2.829 1.346-0.932 0.169-1.697-0.027-2.295-0.588v0l-1.446-1.327c0.495-0.395 0.909-0.864 1.242-1.406 0.328-0.548 0.415-0.923 0.259-1.127v0c-0.102-0.134-0.243-0.201-0.421-0.201v0c-0.14 0.472-0.398 0.945-0.774 1.419-0.371 0.47-0.754 0.856-1.151 1.159v0c-1.136 0.868-2.19 1.304-3.162 1.309zM230.25 241.608v0l-11.541-10.967c-0.396-0.376-0.424-1.012-0.085-1.908 0.345-0.891 0.93-1.772 1.757-2.642v0c0.464-0.489 0.965-0.893 1.5-1.211 0.531-0.324 0.998-0.512 1.402-0.565v0c0.693 0.063 1.373 0.161 2.04 0.291 0.662 0.136 2.187 0.469 4.575 0.999v0c0.079-0.083 0.124-0.184 0.136-0.304 0.011-0.12-0.039-0.233-0.152-0.339-0.112-0.107-0.421-0.218-0.924-0.334v0l-3.319-0.796-0.63-0.599c0.049-0.698 0.25-1.409 0.603-2.133 0.358-0.729 0.821-1.392 1.388-1.989v0c0.929-0.978 1.853-1.597 2.771-1.859v0c1.085-0.3 2.077-0.022 2.976 0.833v0l10.903 10.36c0.66 0.627 0.839 1.398 0.538 2.311v0c-0.242 0.793-0.788 1.637-1.638 2.532v0c-0.474 0.499-0.99 0.934-1.548 1.306-0.553 0.367-1.041 0.606-1.462 0.717v0c-1.219-0.117-2.519-0.32-3.901-0.609v0l-3.072-0.687c-0.175 0.252-0.16 0.476 0.046 0.671v0c0.132 0.125 0.486 0.252 1.061 0.381v0l3.69 0.771 0.616 0.586c-0.273 1.433-0.94 2.707-1.999 3.821-1.064 1.119-2.098 1.802-3.103 2.047-1.01 0.25-1.886 0.022-2.628-0.684zM234.126 210.431v0l5.238-7.519c0.588 0.04 1.171 0.171 1.749 0.392 0.572 0.217 1.054 0.463 1.446 0.737v0c0.88 0.613 1.421 1.245 1.625 1.896 0.204 0.651 0.092 1.284-0.336 1.898v0l-3.659 5.254c-0.224 0.321-0.211 0.568 0.038 0.741v0l0.108 0.075c0.05 0.035 0.089 0.05 0.117 0.045v0l4.341-6.233c0.379 0.034 0.812 0.138 1.299 0.313v0c0.516 0.203 0.948 0.426 1.296 0.669v0c1.035 0.721 1.709 1.474 2.025 2.26v0l-1.972 2.831c-0.917 1.317-1.49 2.245-1.717 2.784-0.228 0.54-0.347 0.888-0.359 1.045v0c0.002 0.174 0.064 0.303 0.186 0.388 0.122 0.085 0.258 0.089 0.409 0.014v0c0.167-0.558 0.391-1.104 0.674-1.639v0c0.394-0.695 0.857-1.425 1.388-2.188v0l2.55-3.66c1.117-0.011 2.201 0.35 3.252 1.082v0c0.592 0.412 1.109 0.879 1.551 1.401 0.433 0.523 0.711 1.05 0.835 1.58v0l-6.799 9.76c-0.748 1.073-1.612 1.753-2.592 2.04v0c-1.05 0.328-2.115 0.117-3.194-0.634v0l-12.391-8.632c-0.415-0.289-0.386-0.98 0.087-2.072 0.479-1.088 1.414-2.631 2.805-4.628zM256.319 200.589v0c0.045-0.09 0.063-0.187 0.054-0.289v0l-1.293-0.648c-0.111-0.863-0.013-1.941 0.295-3.234 0.302-1.297 0.729-2.497 1.282-3.6v0c0.763-0.244 1.737-0.277 2.922-0.098 1.182 0.169 2.191 0.452 3.026 0.848v0c0.286 0.377 0.533 0.9 0.741 1.57 0.211 0.664 0.345 1.405 0.402 2.225v0c0.135 2.036-0.308 4.072-1.329 6.111v0c-1.458 2.912-3.454 4.783-5.987 5.61v0c-2.579 0.873-5.385 0.551-8.417-0.967-3.033-1.518-4.944-3.659-5.733-6.422v0c-0.355-1.218-0.456-2.479-0.301-3.781 0.163-1.306 0.552-2.57 1.164-3.795v0c1.192-2.382 2.749-4.046 4.671-4.991 1.915-0.949 3.72-0.999 5.414-0.152v0c1.278 0.64 2.029 1.506 2.252 2.598 0.214 1.095-0.016 2.314-0.69 3.659v0c-0.368 0.736-0.92 1.387-1.656 1.953-0.742 0.564-1.309 0.838-1.701 0.823v0c-0.778-0.389-1.382-0.711-1.814-0.965v0c-0.015 0.015-0.035 0.047-0.058 0.095v0l-0.05 0.1c-0.072 0.145-0.089 0.276-0.05 0.393 0.039 0.118 0.173 0.271 0.402 0.462 0.22 0.193 0.897 0.573 2.031 1.141v0c2.719 1.361 4.194 1.813 4.423 1.354zM263.962 183.065v0c0.048-0.353-0.067-0.573-0.344-0.66-0.277-0.087-0.617-0.095-1.021-0.025-0.408 0.062-0.822 0.218-1.24 0.469v0c-1.092 0.639-1.88 1.726-2.364 3.263v0c-0.239 0.759-0.337 1.506-0.293 2.241v0c-0.573 0.583-1.306 0.96-2.202 1.13-0.897 0.177-1.789 0.125-2.676-0.155v0c-2.328-0.734-3.816-2.27-4.465-4.609v0c-0.555-2.006-0.448-4.231 0.322-6.675v0c0.572-1.814 1.249-3.279 2.033-4.397 0.779-1.126 1.595-1.986 2.446-2.58v0c0.742-0.021 1.47 0.081 2.184 0.306 0.72 0.227 1.343 0.529 1.867 0.907 0.524 0.377 0.907 0.802 1.147 1.273v0c-0.358 0.262-0.811 0.801-1.359 1.619-0.547 0.817-0.938 1.596-1.171 2.335-0.231 0.733-0.341 1.239-0.33 1.519 0.013 0.273 0.116 0.44 0.309 0.5v0c0.09 0.028 0.182 0.04 0.276 0.034v0c0.021-0.382 0.119-0.85 0.294-1.403v0c0.62-1.968 1.589-3.427 2.906-4.376v0c1.575-1.116 3.471-1.324 5.69-0.624v0c1.961 0.618 3.338 1.925 4.13 3.921v0c0.841 2.153 0.806 4.676-0.106 7.57v0c-0.503 1.595-1.057 2.94-1.664 4.036-0.609 1.102-1.383 2.113-2.324 3.032v0c-1.345 0.41-2.584 0.437-3.716 0.081-1.138-0.359-1.958-1.045-2.458-2.059-0.501-1.013-0.573-2.086-0.216-3.217 0.359-1.138 0.883-1.995 1.573-2.569 0.692-0.581 1.616-0.876 2.772-0.887z" fill="#ffffff" data-fill-palette-color="primary"></path><path d="M37.005 94.284L32.006 108.394C31.497 109.83 30.723 110.804 29.683 111.316 28.643 111.827 27.354 111.811 25.816 111.266V111.266L6.844 104.544C6.503 103.65 6.349 102.651 6.382 101.547 6.413 100.449 6.617 99.37 6.993 98.308V98.308C7.547 96.745 8.404 95.557 9.565 94.745V94.745C10.867 93.876 12.294 93.716 13.845 94.265V94.265L24.456 98.025C24.262 98.772 24.214 99.556 24.309 100.377 24.405 101.197 24.634 101.672 24.996 101.8V101.8C25.218 101.879 25.449 101.825 25.687 101.637V101.637C25.067 99.973 25.205 97.879 26.099 95.356V95.356L27.727 90.761C29.529 90.44 31.211 90.557 32.775 91.111V91.111C33.557 91.388 34.371 91.827 35.217 92.427 36.067 93.036 36.663 93.655 37.005 94.284ZM23.633 85.238V85.238C23.292 85.957 22.884 86.588 22.41 87.132 21.938 87.684 21.446 88.037 20.934 88.189V88.189L11.635 84.592C11.442 84.134 11.45 83.466 11.658 82.587 11.86 81.705 12.165 80.835 12.573 79.976 12.984 79.111 13.466 78.314 14.022 77.585 14.571 76.853 15.104 76.389 15.622 76.195V76.195L24.304 81.089C24.658 82.168 24.434 83.551 23.633 85.238ZM22.655 66.042V66.042L29.112 56.076C29.883 56.101 30.647 56.243 31.404 56.5 32.157 56.764 32.792 57.062 33.307 57.396V57.396C34.472 58.151 35.2 58.944 35.49 59.774 35.781 60.614 35.663 61.441 35.135 62.256V62.256L30.625 69.217C30.347 69.647 30.374 69.97 30.708 70.186V70.186L30.844 70.274C30.918 70.322 30.973 70.342 31.01 70.334V70.334L36.361 62.074C36.854 62.096 37.419 62.209 38.058 62.414V62.414C38.732 62.65 39.301 62.919 39.765 63.219V63.219C41.135 64.107 42.04 65.054 42.479 66.062V66.062L40.054 69.806C38.917 71.56 38.215 72.792 37.948 73.503 37.675 74.21 37.536 74.666 37.531 74.872V74.872C37.543 75.088 37.628 75.248 37.787 75.351 37.951 75.457 38.13 75.46 38.323 75.361V75.361C38.513 74.632 38.782 73.915 39.128 73.207V73.207C39.606 72.295 40.175 71.33 40.835 70.312V70.312L43.975 65.465C45.42 65.404 46.839 65.825 48.231 66.727V66.727C49.012 67.233 49.699 67.815 50.293 68.473 50.878 69.133 51.262 69.8 51.444 70.473V70.473L43.063 83.409C42.139 84.835 41.051 85.758 39.8 86.176V86.176C38.452 86.645 37.062 86.415 35.631 85.487V85.487L19.205 74.846C18.651 74.486 18.659 73.592 19.232 72.163 19.798 70.731 20.94 68.69 22.655 66.042ZM53.858 57.14V57.14C54.114 56.76 54.107 56.438 53.835 56.175 53.564 55.912 53.175 55.704 52.667 55.55 52.163 55.391 51.597 55.331 50.969 55.37V55.37C49.33 55.482 47.784 56.288 46.329 57.79V57.79C45.616 58.526 45.071 59.336 44.694 60.219V60.219C43.693 60.564 42.623 60.574 41.483 60.249 40.338 59.929 39.332 59.349 38.465 58.509V58.509C36.199 56.313 35.367 53.673 35.971 50.587V50.587C36.492 47.937 37.906 45.421 40.214 43.038V43.038C41.931 41.265 43.567 39.954 45.123 39.104 46.678 38.264 48.124 37.745 49.461 37.547V37.547C50.326 37.953 51.11 38.496 51.812 39.176 52.509 39.852 53.055 40.558 53.448 41.296 53.837 42.039 54.032 42.753 54.033 43.44V43.44C53.462 43.535 52.626 43.899 51.525 44.531 50.415 45.164 49.512 45.839 48.818 46.556 48.119 47.277 47.696 47.802 47.548 48.128 47.406 48.45 47.429 48.702 47.618 48.885V48.885C47.705 48.97 47.801 49.035 47.907 49.081V49.081C48.153 48.653 48.539 48.167 49.064 47.625V47.625C50.926 45.702 52.897 44.574 54.976 44.24V44.24C57.444 43.862 59.764 44.724 61.934 46.826V46.826C63.847 48.679 64.685 50.988 64.447 53.753V53.753C64.176 56.737 62.67 59.644 59.93 62.473V62.473C58.419 64.032 56.994 65.271 55.655 66.189 54.315 67.107 52.829 67.827 51.197 68.349V68.349C49.404 68.048 47.955 67.363 46.851 66.293 45.742 65.219 45.19 63.948 45.195 62.479 45.2 61.01 45.74 59.721 46.814 58.612 47.889 57.503 48.994 56.817 50.129 56.556 51.269 56.29 52.512 56.485 53.858 57.14ZM70.697 32.065L71.855 31.25 80.181 43.077C79.986 43.89 79.563 44.753 78.911 45.666 78.259 46.578 77.315 47.469 76.08 48.339 74.85 49.204 73.609 49.666 72.355 49.724V49.724C70.96 49.816 69.88 49.318 69.115 48.232V48.232L61.482 37.39 57.562 40.149C55.94 39.568 54.646 38.59 53.679 37.217V37.217C53.023 36.286 52.602 35.37 52.414 34.472 52.227 33.573 52.217 32.78 52.385 32.093V32.093L69.794 19.836C70.473 20.109 71.171 20.533 71.889 21.108 72.608 21.673 73.217 22.309 73.714 23.014V23.014C74.645 24.338 75.038 25.517 74.892 26.551 74.746 27.586 74.18 28.45 73.193 29.145V29.145L68.264 32.615C68.285 32.716 68.329 32.813 68.395 32.907V32.907C68.534 33.105 68.748 33.157 69.036 33.061V33.061C69.333 32.968 69.886 32.636 70.697 32.065ZM88.898 25.17C89.041 25.223 89.22 25.201 89.434 25.103 89.643 25.008 89.805 24.883 89.919 24.727V24.727C88.731 22.979 87.999 21.956 87.723 21.659V21.659C87.424 21.358 87.136 21.271 86.86 21.397V21.397C86.737 21.452 86.603 21.558 86.459 21.712V21.712ZM87.746 32.483V32.483C87.701 32.71 87.713 32.898 87.78 33.045V33.045C87.944 33.407 88.42 33.558 89.207 33.496 90 33.432 90.898 33.208 91.902 32.826V32.826C92.886 34.549 93.527 35.494 93.826 35.662V35.662C93.796 36.231 93.35 36.993 92.488 37.948 91.628 38.91 90.527 39.696 89.183 40.307V40.307C87.396 41.12 85.689 41.429 84.061 41.237 82.435 41.05 81.347 40.352 80.797 39.143V39.143C80.649 38.818 80.552 38.514 80.505 38.232V38.232L76.38 18.585C77.091 17.491 78.057 16.448 79.279 15.455 80.502 14.462 81.862 13.625 83.36 12.944V12.944C85.508 11.967 87.508 11.494 89.359 11.526V11.526C91.473 11.565 93.072 12.278 94.155 13.667V13.667L106.463 29.392C105.93 31.672 104.196 33.479 101.262 34.813V34.813C99.838 35.461 98.515 35.752 97.292 35.686 96.078 35.623 95.172 35.153 94.574 34.277V34.277L93.121 32.183C93.87 31.827 94.529 31.353 95.097 30.762 95.671 30.167 95.89 29.72 95.753 29.419V29.419C95.663 29.222 95.511 29.099 95.296 29.049V29.049C94.974 29.595 94.51 30.114 93.903 30.604 93.294 31.089 92.695 31.465 92.105 31.733V31.733C90.417 32.501 88.964 32.751 87.746 32.483ZM104.919 28.557V28.557L100.391 8.437C100.234 7.739 100.662 7.031 101.675 6.313 102.69 5.6 103.954 5.074 105.467 4.734V4.734C106.322 4.541 107.152 4.465 107.955 4.505 108.758 4.539 109.396 4.672 109.87 4.904V4.904C110.579 5.477 111.243 6.074 111.859 6.695 112.476 7.317 113.879 8.774 116.068 11.067V11.067C116.212 11.034 116.336 10.954 116.439 10.828 116.536 10.709 116.564 10.554 116.521 10.363 116.476 10.166 116.224 9.825 115.762 9.342V9.342L112.75 6.091 112.501 4.985C113.059 4.272 113.794 3.651 114.704 3.121 115.608 2.593 116.583 2.211 117.629 1.975V1.975C119.333 1.592 120.774 1.592 121.953 1.977V1.977C123.336 2.44 124.203 3.454 124.556 5.02V5.02L128.835 24.034C129.094 25.186 128.737 26.144 127.761 26.909V26.909C126.927 27.595 125.728 28.114 124.162 28.466V28.466C123.294 28.662 122.427 28.756 121.561 28.751 120.691 28.753 119.989 28.659 119.455 28.468V28.468C118.234 27.464 116.983 26.312 115.702 25.01V25.01L112.891 22.056C112.514 22.196 112.367 22.447 112.448 22.809V22.809C112.499 23.032 112.791 23.423 113.324 23.98V23.98L116.743 27.472 116.983 28.537C115.657 29.893 114.02 30.79 112.073 31.229 110.126 31.667 108.52 31.655 107.255 31.193 105.99 30.732 105.211 29.853 104.92 28.557ZM136.698 20.824V20.824C137.082 20.819 137.271 20.604 137.266 20.179V20.179C134.211 18.203 131.866 15.76 130.229 12.848 128.592 9.93 127.652 6.702 127.409 3.165V3.165C128.017 2.24 128.931 1.523 130.152 1.014 131.372 0.499 132.633 0.232 133.934 0.215V0.215C135.654 0.192 137.135 0.51 138.378 1.167V1.167C139.174 3.227 139.831 5.194 140.348 7.069V7.069C139.713 10.044 139.396 11.532 139.396 11.532V11.532C139.345 11.735 139.32 11.928 139.323 12.11V12.11C139.329 12.575 139.578 12.804 140.07 12.798V12.798C140.232 12.27 140.595 10.687 141.16 8.049V8.049C141.306 7.373 141.496 6.433 141.729 5.23 141.97 4.026 142.278 2.606 142.654 0.969V0.969C143.907 0.345 145.342 0.023 146.96 0.001V0.001C148.922-0.025 150.493 0.433 151.672 1.375 152.851 2.31 153.453 3.677 153.477 5.478V5.478C153.512 8.107 152.808 10.682 151.364 13.204V13.204C150.224 15.195 148.705 17.059 146.806 18.797V18.797L146.897 25.594C145.767 26.303 144.748 26.779 143.841 27.02 142.94 27.262 141.991 27.389 140.993 27.402V27.402C139.099 27.427 137.604 27.09 136.509 26.39 135.414 25.689 134.857 24.631 134.838 23.216V23.216L134.79 19.595C135.042 19.841 135.363 20.11 135.751 20.401 136.139 20.686 136.455 20.827 136.698 20.824ZM173.701 23.576V23.576C174.158 23.616 174.436 23.454 174.535 23.09 174.634 22.725 174.628 22.284 174.517 21.764 174.413 21.247 174.192 20.722 173.854 20.191V20.191C172.964 18.81 171.511 17.846 169.493 17.299V17.299C168.504 17.03 167.532 16.945 166.576 17.042V17.042C165.79 16.332 165.264 15.4 164.998 14.245 164.725 13.088 164.747 11.927 165.063 10.762V10.762C165.889 7.717 167.799 5.713 170.792 4.75V4.75C173.364 3.925 176.25 3.947 179.452 4.816V4.816C181.834 5.462 183.772 6.26 185.268 7.211 186.755 8.167 187.909 9.182 188.728 10.257V10.257C188.791 11.21 188.694 12.158 188.438 13.102 188.184 14.039 187.829 14.858 187.373 15.559 186.911 16.258 186.38 16.774 185.779 17.107V17.107C185.42 16.653 184.698 16.097 183.612 15.439 182.521 14.773 181.494 14.309 180.531 14.048 179.561 13.785 178.898 13.668 178.541 13.696 178.19 13.727 177.98 13.869 177.911 14.123V14.123C177.879 14.24 177.869 14.356 177.88 14.471V14.471C178.374 14.479 178.985 14.582 179.714 14.78V14.78C182.297 15.481 184.237 16.661 185.534 18.319V18.319C187.058 20.298 187.425 22.745 186.634 25.66V25.66C185.936 28.231 184.32 30.08 181.785 31.209V31.209C179.04 32.414 175.768 32.5 171.967 31.469V31.469C169.872 30.9 168.099 30.251 166.648 29.522 165.197 28.793 163.848 27.84 162.602 26.664V26.664C161.999 24.949 161.898 23.35 162.301 21.866 162.705 20.376 163.552 19.278 164.84 18.572 166.129 17.867 167.518 17.717 169.008 18.121 170.498 18.525 171.632 19.161 172.41 20.029 173.194 20.899 173.624 22.081 173.701 23.576ZM200.976 29.024L201.785 27.427C202.407 26.2 202.779 25.33 202.903 24.818 203.026 24.306 202.94 23.976 202.646 23.826V23.826C202.459 23.732 202.263 23.708 202.058 23.755V23.755C201.969 23.99 201.856 24.303 201.718 24.694 201.58 25.086 201.208 25.88 200.602 27.077V27.077L199.994 28.277C199.573 29.107 199.249 29.702 199.02 30.063 198.792 30.423 198.598 30.733 198.436 30.991V30.991C198.351 31.13 198.265 31.271 198.176 31.415V31.415C198.26 31.609 198.395 31.752 198.581 31.847V31.847C198.876 31.996 199.193 31.87 199.533 31.468 199.876 31.059 200.357 30.245 200.976 29.024ZM194.338 40.31V40.31C192.161 39.207 190.388 37.745 189.019 35.925 187.66 34.103 186.893 31.983 186.719 29.567 186.549 27.144 187.167 24.544 188.575 21.765V21.765C190.614 17.741 193.421 15.209 196.994 14.17V14.17C200.156 13.27 203.433 13.68 206.825 15.399V15.399C210.506 17.264 212.843 19.881 213.835 23.249 214.824 26.622 214.377 30.168 212.493 33.885V33.885C210.396 38.023 207.647 40.599 204.246 41.612V41.612C201.153 42.524 197.85 42.09 194.338 40.31ZM220.749 47.088V47.088C220.854 47.173 220.97 47.223 221.096 47.239V47.239L222.273 45.785C223.401 45.882 224.742 46.304 226.297 47.052 227.852 47.799 229.248 48.674 230.485 49.675V49.675C230.584 50.71 230.357 51.954 229.805 53.407 229.259 54.865 228.62 56.066 227.89 57.01V57.01C227.331 57.26 226.598 57.426 225.691 57.507 224.793 57.587 223.816 57.546 222.759 57.384V57.384C220.148 56.996 217.695 55.873 215.4 54.015V54.015C212.115 51.354 210.301 48.306 209.959 44.871V44.871C209.576 41.358 210.768 37.894 213.535 34.477 216.302 31.061 219.541 29.242 223.252 29.019V29.019C224.899 28.904 226.526 29.129 228.134 29.693 229.737 30.263 231.228 31.106 232.606 32.222V32.222C235.289 34.395 236.964 36.827 237.63 39.518 238.297 42.21 237.855 44.512 236.306 46.425V46.425C235.144 47.86 233.839 48.566 232.394 48.54 230.952 48.509 229.474 47.881 227.96 46.654V46.654C227.127 45.98 226.456 45.094 225.947 43.996 225.44 42.909 225.251 42.118 225.382 41.625V41.625C226.091 40.75 226.664 40.074 227.103 39.596V39.596C227.091 39.569 227.058 39.534 227.006 39.491V39.491L226.896 39.402C226.733 39.271 226.569 39.216 226.404 39.238 226.243 39.255 226.009 39.378 225.702 39.607 225.4 39.84 224.732 40.596 223.696 41.874V41.874C221.218 44.934 220.236 46.672 220.749 47.088ZM249.172 54.085V54.085L233.408 68.35C232.573 68.251 231.663 67.934 230.677 67.397 229.697 66.866 228.699 66.041 227.686 64.921 226.672 63.801 226.061 62.622 225.85 61.385V61.385C225.589 60.011 225.951 58.879 226.936 57.987V57.987L242.701 43.722C243.536 43.821 244.444 44.136 245.425 44.667 246.41 45.203 247.405 46.026 248.409 47.136 249.414 48.246 250.04 49.43 250.287 50.689V50.689C250.519 52.07 250.147 53.202 249.172 54.085ZM250.089 72.396C250.057 72.545 250.104 72.719 250.232 72.918 250.356 73.111 250.503 73.253 250.673 73.343V73.343C252.234 71.918 253.141 71.047 253.396 70.731V70.731C253.65 70.392 253.696 70.094 253.532 69.839V69.839C253.459 69.725 253.336 69.608 253.162 69.487V69.487ZM242.687 72.303V72.303C242.455 72.291 242.271 72.329 242.135 72.416V72.416C241.8 72.631 241.72 73.124 241.893 73.893 242.07 74.669 242.42 75.526 242.942 76.465V76.465C241.378 77.685 240.534 78.455 240.41 78.775V78.775C239.842 78.826 239.024 78.494 237.956 77.777 236.882 77.065 235.946 76.087 235.148 74.844V74.844C234.089 73.192 233.538 71.547 233.495 69.908 233.448 68.272 233.983 67.096 235.101 66.378V66.378C235.401 66.185 235.688 66.045 235.961 65.959V65.959L254.815 59.065C255.999 59.612 257.17 60.419 258.328 61.486 259.485 62.554 260.509 63.78 261.397 65.165V65.165C262.671 67.152 263.425 69.063 263.659 70.9V70.9C263.923 72.998 263.445 74.683 262.226 75.954V75.954L248.424 90.385C246.091 90.183 244.055 88.726 242.314 86.013V86.013C241.469 84.696 240.992 83.428 240.883 82.209 240.771 80.998 241.106 80.034 241.888 79.317V79.317L243.753 77.579C244.212 78.27 244.775 78.854 245.442 79.331 246.113 79.815 246.587 79.967 246.865 79.789V79.789C247.047 79.672 247.147 79.504 247.166 79.283V79.283C246.579 79.043 245.999 78.658 245.427 78.128 244.86 77.594 244.402 77.055 244.052 76.51V76.51C243.051 74.949 242.596 73.547 242.687 72.303ZM252.792 108.588L247.278 94.671C246.717 93.255 246.66 92.012 247.107 90.943 247.553 89.873 248.535 89.038 250.052 88.437V88.437L268.765 81.023C269.61 81.472 270.383 82.123 271.084 82.977 271.782 83.824 272.339 84.772 272.753 85.818V85.818C273.364 87.361 273.5 88.819 273.16 90.194V90.194C272.75 91.705 271.781 92.764 270.251 93.37V93.37L259.785 97.517C259.44 96.827 258.961 96.204 258.349 95.649 257.737 95.093 257.253 94.886 256.896 95.028V95.028C256.676 95.115 256.538 95.307 256.482 95.605V95.605C258.043 96.452 259.317 98.119 260.303 100.608V100.608L262.099 105.14C260.952 106.567 259.608 107.585 258.066 108.196V108.196C257.295 108.502 256.393 108.707 255.361 108.811 254.32 108.911 253.464 108.837 252.792 108.588Z" fill="#ffffff" data-fill-palette-color="primary"></path><path d="M1.763 142.677c0-5.953 4.826-10.78 10.78-10.78 5.953 0 10.78 4.826 10.78 10.78 0 5.953-4.826 10.78-10.78 10.78-5.953 0-10.78-4.826-10.78-10.78zM256.397 142.677c0-5.953 4.826-10.78 10.78-10.78 5.953 0 10.78 4.826 10.78 10.78 0 5.953-4.826 10.78-10.78 10.78-5.953 0-10.78-4.826-10.78-10.78z" fill="#ffffff" data-fill-palette-color="primary"></path></svg></g></svg></g></svg></g></svg></g><defs></defs></svg><rect width="279.72" height="279.72" fill="none" stroke="none" visibility="hidden"></rect></g></svg></g></svg>